<svg width="562" height="578" viewBox="0 0 562 578" fill="none" xmlns="http://www.w3.org/2000/svg">
<g id="duck">
<path id="body" d="M79 43C79 31.8135 79.8516 30.7538 87.0695 21.9318C96.1982 10.7745 108.741 6.1887 121.746 2.3354C135.534 -1.75001 159.062 1.83671 169.589 12.3632C178.882 21.6571 183.239 30.1464 189.568 41.222C195.28 51.2183 199.641 61.552 204.418 72.3006C207.106 78.3491 207.75 86.7346 209.93 93.2749C212.456 100.852 216.877 107.888 218.58 115.55C219.753 120.831 225.26 130.545 228.837 134.917C233.302 140.374 234.504 150.004 236.722 156.657C239.996 166.479 239.46 177.866 242.616 187.965C245.44 197.002 249.529 207.114 254.022 215.599C258.437 223.94 268.435 228.261 276.374 232.44C286.734 237.892 300.062 238.788 311.586 240.324C317.305 241.087 323.447 240.346 329.039 239.329C335.809 238.098 342.555 240.401 349.324 240.401C360.302 240.401 371.113 239.023 381.857 239.023H448.608C455.666 239.023 460.24 227.666 462.692 222.488C466.339 214.791 467.898 204.954 467.898 196.309C467.898 181.069 478.656 164.911 489.178 154.973C494.767 149.695 495.455 165.47 495.455 168.752C495.455 173.068 493.958 177.082 492.639 181.106C494.206 178.09 495.942 175.141 497.445 172.349C501.509 164.802 505.457 160.27 511.683 154.667C520.129 147.066 524.799 175.414 522.706 181.459C522.385 182.385 521.947 183.832 521.482 185.362C523.471 182.355 526.051 179.209 527.146 177.019C530.626 170.058 534.247 164.633 540.159 159.795C555.565 147.191 554.704 172.706 554.704 182.53C554.704 188.966 553.326 195.147 553.326 201.82C553.326 213.126 557.459 223.762 557.459 234.813C557.459 242.247 560.215 249.773 560.215 257.241C560.215 270.707 561.593 284.004 561.593 297.506C561.593 307.124 556.731 313.949 554.704 323.073C553.049 330.519 548.72 335.281 545.365 340.985C543.494 344.166 540.902 347.404 538.169 349.942C535.01 352.875 533.226 358.431 529.902 360.582C525.569 363.385 522.055 367.828 517.348 370.61C512.987 373.187 506.975 374.51 503.033 377.576C498.184 381.347 487.092 386.455 480.987 386.455C475.761 386.455 469.855 391.978 464.836 393.651C454.269 397.173 443.42 400.52 432.839 404.367C422.983 407.951 412.491 407.228 402.525 409.573C375.678 415.89 346.688 418.146 319.011 418.146C292.864 418.146 263.553 418.401 239.171 407.429C218.662 398.2 193.767 390.575 179.31 371.987C173.892 365.021 175.216 352.848 171.962 345.119C170.265 341.089 170.063 336.275 168.211 331.953C164.442 323.158 160.812 313.158 158.642 303.859C156.018 292.614 151.899 281.64 148.232 270.637C142.733 254.14 140.461 235.465 133.381 219.733C129.199 210.44 130.122 198.062 127.564 188.195C124.672 177.04 123.816 165.936 121.746 154.667C119.251 141.083 116.853 127.789 113.861 114.326C112.287 107.24 108.304 101.291 104.829 95.0355C101.341 88.7566 99.1937 81.6126 95.1071 75.3625C90.9652 69.0278 85.5887 46.2943 79 43Z" fill="#9AE4C0"/>
<g id="eye">
<path d="M117.888 41.6266C118.319 41.8029 118.749 41.9803 119.185 42.1554C119.48 42.0517 119.732 42.0134 119.909 42.064C120.031 42.0989 120.146 42.1375 120.255 42.1795C122.871 41.8523 125.457 42.3584 126.951 44.2268C129.109 46.9239 137.205 50.1575 126.951 53.087C119.947 55.0883 112.502 54.8185 105.518 51.3264C100.629 48.8819 101.277 39.2318 107.585 39.2318C110.962 39.2318 113.504 39.937 115.867 40.8241C116.925 40.6369 117.563 41.0064 117.888 41.6266Z" fill="white"/>
<path d="M126.951 44.2268C119.104 43.442 115.836 39.2318 107.585 39.2318C101.277 39.2318 100.629 48.8819 105.518 51.3264C112.502 54.8185 119.947 55.0883 126.951 53.087C137.205 50.1575 129.109 46.9239 126.951 44.2268ZM126.951 44.2268C122.454 38.6049 108.082 45.3175 112.713 49.9485C116.513 53.7482 125.725 43.7257 119.909 42.064C118.784 41.7428 114.657 45.0032 115.469 45.8149C117.732 48.078 120.186 39.5952 115.469 40.9158C111.462 42.0377 111.818 45.7394 113.479 48.8768C114.911 51.5828 120.649 47.4737 119.296 46.1211" stroke="black" stroke-width="3" stroke-linecap="round"/>
</g>
<path id="top-beak" d="M25.6013 50.2547C43.6794 50.2547 60.5243 41.002 78.5 42.5L84.8497 50.2547L87 56L84.8497 58.5219C75.9674 62.9631 61.1804 63.9771 51.0153 60.5887C38.8798 56.5435 23.4348 61.9381 11.2102 58.4454C8.36155 57.6315 -4.87132 54.9463 3.24914 51.9388C10.2445 49.3479 18.2411 50.2547 25.6013 50.2547Z" fill="#F82D00"/>
<path id="bottom-beak" d="M51.0918 62.6555C59.8631 62.6555 74.6414 66.5242 82.0939 59.8998L87.6054 56.5V59.8998L89.5 62.6555L87.6054 66.7891C81.6654 78.6691 61.6467 72.3006 50.4795 72.3006C44.0969 72.3006 1.76379 78.8427 17.0278 65.1051C23.6694 59.1276 42.3744 62.6555 51.0918 62.6555Z" fill="#F82D00"/>
<path id="wing" d="M228.148 267.958C228.148 280.672 232.663 292.928 237.793 304.472C245.102 320.916 257.639 326.09 271.168 336.852C288.945 350.992 309.2 364.409 333.02 364.409C356.694 364.409 380.218 363.684 403.061 356.831C420.403 351.628 435.519 346.444 450.751 336.086C462.306 328.229 446.854 314.728 436.896 316.26C422.566 318.465 411.888 329.3 397.32 329.962C390.27 330.283 383.76 332.718 376.652 332.718C366.389 332.718 389.398 326.997 392.421 325.829C403.401 321.587 414.525 317.494 425.873 314.04C440.504 309.587 439.965 301.121 425.184 298.271C414.907 296.29 407.918 296.854 398.239 300.338C391.835 302.644 385.133 304.32 378.489 305.773C374.782 306.584 370.137 305.666 366.701 307.228C357.215 311.539 369.818 305.428 374.279 304.472C385.159 302.14 395.908 300.932 406.736 298.884C413.873 297.533 428.772 297.682 434.523 292.454C439.594 287.843 440.292 285.026 432.532 282.809C412.655 277.129 395.064 277.603 374.356 277.603C367.206 277.603 360.403 281.737 353.228 281.737C346.356 281.737 339.637 283.115 332.866 283.115C328.22 283.115 307.359 283.08 305.309 278.981" stroke="black" stroke-width="3" stroke-linecap="round"/>
<path id="leg1" d="M278.44 442.335C281.007 436.69 283.263 424.398 283.263 418.146H310.82C307.106 423.717 304.779 433.246 304.008 440.192C302.651 452.402 298.417 464.117 295.358 476.017C292.752 486.151 286.394 495.207 283.263 505.258C281.426 511.155 277.272 519.142 271.628 522.099C266.51 524.78 261.916 529.398 256.471 532.509C248.701 536.95 236.303 532.663 227.536 532.509C210.505 532.211 193.438 532.509 176.401 532.509C163.361 532.509 150.403 533.555 137.821 530.06C130.083 527.91 128.89 521.392 134.928 518.439C132.883 518.079 130.89 517.428 128.942 516.281C125.808 514.438 126.849 510.719 129.707 509.086L129.769 509.05C131.563 508.025 133.114 507.139 134.691 506.455C129.1 506.536 124.795 505.67 127.028 502.196C131.427 495.354 141.958 495.307 148.997 495.307C161.821 495.307 174.513 494.189 187.271 493.929C208.563 493.494 232.378 497.076 253.333 493.852C259.829 492.853 266.086 471.638 268.413 466.984C272.446 458.916 274.723 450.514 278.44 442.335Z" fill="#D9B700"/>
<path id="leg2" d="M431.574 424.802C428.655 418.964 423.726 410.661 423 404.134L453.313 400C457.251 411.813 457.952 424.672 460.203 437.049C462.965 452.244 466.946 468.844 476.048 481.447C481.294 488.711 485.734 496.817 490.516 504.412C495.562 512.426 492.51 522.58 491.894 531.204C491.074 542.679 479.491 552.562 469.848 557.383C457.564 563.525 441.771 572.234 427.899 572.234C415.666 572.234 402.842 577.745 390.62 577.745C383.556 577.745 371.425 569.688 383.119 566.033C389.765 563.956 396.031 562.008 402.868 560.522C413.253 558.264 403.183 558.901 400.265 560.522C397.006 562.333 361.203 563.76 372.019 552.944C378.687 546.276 391.379 549.294 399.883 546.054C408.897 542.62 397.749 544.676 393.376 544.676C387.314 544.676 381.095 546.054 374.775 546.054C370.515 546.054 365.573 546.701 361.762 544.523C357.03 541.82 375.82 536.331 377.531 535.72C394.586 529.629 412.265 526.68 429.277 519.875C432.554 518.564 453.09 512.644 453.313 508.852C453.552 504.798 453.431 500.56 453.315 496.501L453.313 496.451C452.882 481.361 446.872 468.517 442.291 454.502C438.852 443.986 436.587 434.827 431.574 424.802Z" fill="#D9B700"/>
</g>
</svg>
