<svg width="1280" height="832" viewBox="0 0 1280 832" fill="none" xmlns="http://www.w3.org/2000/svg">
<g id="duck">
<rect width="1280" height="832" fill="white"/>
<path id="body" d="M382 231C382 219.814 382.852 218.754 390.07 209.932C399.198 198.775 411.741 194.189 424.746 190.335C438.534 186.25 462.062 189.837 472.589 200.363C481.882 209.657 486.239 218.146 492.568 229.222C498.28 239.218 502.641 249.552 507.418 260.301C510.106 266.349 510.75 274.735 512.93 281.275C515.456 288.853 519.877 295.888 521.58 303.55C522.753 308.831 528.26 318.545 531.837 322.917C536.302 328.374 537.504 338.004 539.722 344.657C542.996 354.479 542.46 365.866 545.616 375.965C548.44 385.002 552.529 395.114 557.022 403.599C561.437 411.94 571.435 416.261 579.374 420.44C589.734 425.892 603.062 426.788 614.586 428.324C620.305 429.087 626.447 428.346 632.039 427.329C638.809 426.098 645.555 428.401 652.324 428.401C663.302 428.401 674.113 427.023 684.857 427.023H751.608C758.666 427.023 763.24 415.666 765.692 410.489C769.339 402.791 770.898 392.954 770.898 384.309C770.898 369.069 781.656 352.911 792.178 342.973C797.767 337.695 798.455 353.47 798.455 356.752C798.455 361.068 796.958 365.082 795.639 369.106C797.206 366.09 798.942 363.141 800.445 360.349C804.509 352.802 808.457 348.27 814.683 342.667C823.129 335.066 827.799 363.414 825.706 369.459C825.385 370.385 824.947 371.832 824.482 373.362C826.471 370.355 829.051 367.209 830.146 365.019C833.626 358.058 837.247 352.633 843.159 347.795C858.565 335.191 857.704 360.706 857.704 370.53C857.704 376.966 856.326 383.147 856.326 389.82C856.326 401.126 860.459 411.762 860.459 422.813C860.459 430.247 863.215 437.773 863.215 445.241C863.215 458.707 864.593 472.004 864.593 485.506C864.593 495.124 859.731 501.949 857.704 511.073C856.049 518.519 851.72 523.281 848.365 528.985C846.494 532.166 843.902 535.404 841.169 537.942C838.01 540.875 836.226 546.431 832.902 548.582C828.569 551.385 825.055 555.828 820.348 558.61C815.987 561.187 809.975 562.51 806.033 565.576C801.184 569.347 790.092 574.455 783.987 574.455C778.761 574.455 772.855 579.978 767.836 581.651C757.269 585.173 746.42 588.52 735.839 592.367C725.983 595.951 715.491 595.228 705.525 597.573C678.678 603.89 649.688 606.146 622.011 606.146C595.864 606.146 566.553 606.401 542.171 595.429C521.662 586.2 496.767 578.575 482.31 559.987C476.892 553.021 478.216 540.848 474.962 533.119C473.265 529.089 473.063 524.275 471.211 519.953C467.442 511.158 463.812 501.158 461.642 491.859C459.018 480.614 454.899 469.64 451.232 458.637C445.733 442.14 443.461 423.465 436.381 407.733C432.199 398.44 433.122 386.062 430.564 376.195C427.672 365.04 426.816 353.936 424.746 342.667C422.251 329.083 419.853 315.789 416.861 302.326C415.287 295.24 411.304 289.291 407.829 283.035C404.341 276.757 402.194 269.613 398.107 263.363C393.965 257.028 388.589 234.294 382 231Z" fill="#9AE4C0"/>
<g id="eye">
<path d="M420.888 229.627C421.319 229.803 421.749 229.98 422.185 230.155C422.48 230.052 422.732 230.013 422.909 230.064C423.031 230.099 423.146 230.137 423.255 230.179C425.871 229.852 428.457 230.358 429.951 232.227C432.109 234.924 440.205 238.157 429.951 241.087C422.947 243.088 415.502 242.819 408.518 239.326C403.629 236.882 404.277 227.232 410.585 227.232C413.962 227.232 416.504 227.937 418.867 228.824C419.925 228.637 420.562 229.006 420.888 229.627Z" fill="white"/>
<path d="M429.951 232.227C422.104 231.442 418.836 227.232 410.585 227.232C404.277 227.232 403.629 236.882 408.518 239.326C415.502 242.819 422.947 243.088 429.951 241.087C440.205 238.157 432.109 234.924 429.951 232.227ZM429.951 232.227C425.454 226.605 411.082 233.317 415.713 237.949C419.513 241.748 428.725 231.726 422.909 230.064C421.784 229.743 417.657 233.003 418.469 233.815C420.732 236.078 423.186 227.595 418.469 228.916C414.462 230.038 414.818 233.739 416.479 236.877C417.911 239.583 423.649 235.474 422.296 234.121" stroke="black" stroke-width="3" stroke-linecap="round"/>
</g>
<path id="top-beak" d="M328.601 238.255C346.679 238.255 363.524 229.002 381.5 230.5L387.85 238.255L390 244L387.85 246.522C378.967 250.963 364.18 251.977 354.015 248.589C341.88 244.544 326.435 249.938 314.21 246.445C311.362 245.631 298.129 242.946 306.249 239.939C313.245 237.348 321.241 238.255 328.601 238.255Z" fill="#F82D00"/>
<path id="bottom-beak" d="M354.092 250.656C362.863 250.656 377.641 254.524 385.094 247.9L390.605 244.5V247.9L392.5 250.656L390.605 254.789C384.665 266.669 364.647 260.301 353.479 260.301C347.097 260.301 304.764 266.843 320.028 253.105C326.669 247.128 345.374 250.656 354.092 250.656Z" fill="#F82D00"/>
<path id="wing" d="M531.148 455.958C531.148 468.672 535.663 480.928 540.793 492.472C548.102 508.916 560.639 514.09 574.168 524.852C591.945 538.992 612.2 552.409 636.02 552.409C659.694 552.409 683.218 551.684 706.061 544.831C723.403 539.628 738.519 534.444 753.751 524.086C765.306 516.229 749.854 502.728 739.896 504.26C725.566 506.465 714.888 517.3 700.32 517.962C693.27 518.283 686.76 520.718 679.652 520.718C669.389 520.718 692.398 514.997 695.421 513.829C706.401 509.587 717.525 505.494 728.873 502.04C743.504 497.587 742.965 489.121 728.184 486.271C717.907 484.29 710.918 484.854 701.239 488.338C694.835 490.644 688.133 492.32 681.489 493.773C677.782 494.584 673.137 493.666 669.701 495.228C660.215 499.539 672.818 493.428 677.279 492.472C688.159 490.14 698.908 488.932 709.736 486.884C716.873 485.533 731.772 485.682 737.523 480.454C742.594 475.843 743.292 473.026 735.532 470.809C715.655 465.129 698.064 465.603 677.356 465.603C670.206 465.603 663.403 469.737 656.228 469.737C649.356 469.737 642.637 471.115 635.866 471.115C631.22 471.115 610.359 471.08 608.309 466.981" stroke="black" stroke-width="3" stroke-linecap="round"/>
<path id="leg1" d="M581.44 630.335C584.007 624.69 586.263 612.398 586.263 606.146H613.82C610.106 611.717 607.779 621.246 607.008 628.192C605.651 640.402 601.418 652.117 598.358 664.017C595.752 674.151 589.394 683.207 586.263 693.258C584.426 699.155 580.272 707.142 574.628 710.099C569.51 712.78 564.916 717.398 559.471 720.509C551.701 724.95 539.303 720.663 530.536 720.509C513.505 720.211 496.438 720.509 479.402 720.509C466.361 720.509 453.403 721.555 440.821 718.06C433.083 715.91 431.89 709.392 437.928 706.439C435.883 706.079 433.89 705.428 431.942 704.281C428.808 702.438 429.849 698.719 432.707 697.086L432.769 697.05C434.563 696.025 436.114 695.139 437.691 694.455C432.1 694.536 427.795 693.67 430.028 690.196C434.427 683.354 444.958 683.307 451.997 683.307C464.821 683.307 477.513 682.189 490.271 681.929C511.563 681.494 535.378 685.076 556.333 681.852C562.829 680.853 569.086 659.638 571.413 654.984C575.447 646.916 577.723 638.514 581.44 630.335Z" fill="#D9B700"/>
<path id="leg2" d="M734.574 612.802C731.655 606.964 726.726 598.661 726 592.134L756.313 588C760.251 599.813 760.952 612.672 763.203 625.049C765.965 640.244 769.946 656.844 779.048 669.447C784.294 676.711 788.734 684.817 793.516 692.412C798.562 700.426 795.51 710.58 794.894 719.204C794.074 730.679 782.491 740.562 772.848 745.383C760.564 751.525 744.771 760.234 730.899 760.234C718.666 760.234 705.842 765.745 693.62 765.745C686.556 765.745 674.425 757.688 686.119 754.033C692.765 751.956 699.031 750.008 705.868 748.522C716.253 746.264 706.183 746.901 703.265 748.522C700.006 750.333 664.203 751.76 675.019 740.944C681.687 734.276 694.379 737.294 702.883 734.054C711.897 730.62 700.749 732.676 696.376 732.676C690.314 732.676 684.095 734.054 677.775 734.054C673.515 734.054 668.573 734.701 664.762 732.523C660.03 729.82 678.82 724.331 680.531 723.72C697.586 717.629 715.265 714.68 732.277 707.875C735.554 706.564 756.09 700.644 756.313 696.852C756.552 692.798 756.431 688.56 756.315 684.501L756.313 684.451C755.882 669.361 749.872 656.517 745.291 642.502C741.852 631.986 739.587 622.827 734.574 612.802Z" fill="#D9B700"/>
<path id="star-b-l" d="M129.499 453.279C116.474 450.385 116.409 507.753 116.409 515.207C107.386 515.207 95.8214 513.946 87.4739 517.656C74.7149 523.327 58.4358 520.074 44.8365 523.474C38.961 524.943 39.0461 527.961 39.2484 533.425C39.472 539.46 48.1638 542.223 53.1037 542.841C67.1377 544.595 81.2135 543.833 95.4349 544.142C100.607 544.254 95.1841 548.833 92.9854 551.031C83.1179 560.899 78.7671 565.959 79.2067 581.344C79.4336 589.288 115.97 573.262 119.93 570.245C126.631 565.14 131.585 557.527 139.833 554.859C149.495 551.733 150.068 555.056 158.358 561.136C163.05 564.577 169.83 566.445 174.892 569.556C185.596 576.133 191.634 584.156 204.899 586.244C209.185 586.918 226.423 590.283 220.362 582.569C214.353 574.921 207.588 568.41 200.153 562.054C192 555.084 183.254 548.303 174.586 541.999C169.301 538.155 159.928 534.843 155.908 529.674C154.618 528.016 167.937 524.546 169.84 524.086C180.801 521.441 191.872 518.826 202.756 516.278C211.074 514.331 219.386 511.153 227.557 508.624C231.122 507.52 232.743 506.661 234.217 503.418C237.787 495.565 193.745 505.419 188.058 505.562C180.882 505.741 155.621 511.889 152.923 504.873C151.175 500.329 151.124 495.997 149.784 491.477C147.712 484.484 149.355 476.533 146.033 469.89C143.856 465.536 134.079 454.297 129.499 453.279Z" fill="#FFE9E9"/>
<path id="star-t-l" d="M190.049 68.7001C192.324 68.05 198.586 44.3399 200.118 35.6488C204.416 32.9734 211.979 28.2536 213.932 31.5741C217.933 38.3766 216.994 45.0938 216.994 53.0077C216.994 55.0066 215.781 63.865 218.065 61.5811C220.083 59.5633 224.688 60.5094 227.481 60.5094C234.898 60.5094 241.992 61.741 249.45 61.8873C253.989 61.9763 262.62 62.4529 266.597 64.3368C277.626 69.5612 257.813 75.4756 254.196 75.666C247.021 76.0436 240.534 79.7996 232.916 79.7996C231.308 79.7996 221.572 80.6536 221.204 81.9429C219.167 89.0722 230.281 102.566 234.6 107.051C238.319 110.913 241.25 114.367 243.862 119.069C248.441 127.311 236.833 124.964 233.299 123.049C222.279 117.081 211.331 110.509 203.521 100.468C201.318 97.6344 199.047 89.1437 194.948 94.2672C193.146 96.5193 185.564 98.6527 182.547 100.161C178.053 102.408 173.929 108.161 168.768 108.735C162.449 109.437 156.332 114.667 149.631 115.624C141.814 116.741 146.093 110.262 146.722 104.601C147.248 99.8663 154.923 94.4057 158.434 91.4349C163.208 87.3954 168.395 84.6954 174.28 82.5553C174.497 82.4762 181.83 79.0995 180.327 78.4983C167.356 73.3099 152.243 80.3604 139.144 78.3452C135.484 77.782 129.513 74.8727 131.872 70.1545C134.587 64.7253 147.851 67.3988 152.54 67.3988C164.147 67.3988 178.802 71.9135 190.049 68.7001Z" fill="#FFE9E9"/>
<path id="star-b-r" d="M1079.54 534.191C1084.04 527.042 1088.63 527.001 1096.08 523.474C1097.72 528.397 1103.66 541.231 1100.9 546.209C1099.38 548.936 1100.1 553.775 1100.21 556.849C1100.4 562.356 1099.63 568.944 1105.72 568.944C1115 568.944 1123.94 567.566 1133.28 567.566C1141.57 567.566 1161.55 558.212 1164.66 570.321C1168.62 585.693 1149.47 580.286 1141.47 584.789C1135.66 588.059 1125.79 593.116 1119.5 593.745C1116.72 594.023 1110.77 595.973 1108.78 598.185C1105.17 602.202 1114.88 622.533 1116.13 626.814C1116.35 627.553 1122.28 641.818 1118.73 641.818C1116.84 641.818 1109.08 635.571 1107.25 634.392C1103.63 632.062 1101.25 628.465 1098.22 625.436C1096.86 624.073 1087.91 611.914 1087.81 611.964C1077.43 617.152 1069.91 628.181 1060.25 634.392C1054.72 637.945 1049.74 639.693 1043.41 640.899C1042.74 641.026 1036.98 642.711 1036.98 642.353C1036.98 639.258 1038.05 634.709 1039.58 632.019C1043.74 624.748 1045.9 616.387 1049.92 608.978C1050.79 607.372 1064.15 591.872 1062.16 590.99C1048.86 585.075 1034.14 582.513 1020.29 578.283C1015.89 576.937 1008.26 572.063 1015.55 569.633C1025.06 566.462 1032.36 568.665 1042.26 570.934C1044.47 571.44 1055.07 576.744 1056.73 576.292C1058.85 575.715 1061.54 571.783 1063.01 570.321C1069.25 564.08 1071.12 558.676 1073.99 550.376L1074.03 550.266C1074.97 547.537 1077.59 544.748 1078.09 541.999C1078.61 539.114 1077.87 536.839 1079.54 534.191Z" fill="#FFE9E9"/>
<path id="star-t-r" d="M1052.06 100.468C1053.64 89.3996 1058.9 82.3078 1060.25 71.5324C1061.6 68.8303 1064.6 66.5723 1066.83 64.3368C1068.22 62.9529 1071.5 55.9814 1071.58 56.0696C1075.39 60.3549 1076.19 70.3581 1077.86 75.9722C1079.49 81.4813 1080.41 89.8059 1080.84 95.6451C1081.42 103.51 1079.88 108.768 1087.88 107.434C1090.1 107.064 1091.3 108.735 1093.63 108.735C1097.65 108.735 1101.81 108.336 1105.72 109.424C1112.58 111.329 1178.07 114.028 1174.31 121.136C1171.62 126.21 1159.34 129.832 1154.56 132.159C1144.27 137.166 1134.45 143.58 1123.63 147.315C1112.78 151.064 1102.49 155.92 1091.64 159.41C1083.22 162.116 1088.65 166.606 1092.63 172.117C1099.46 181.579 1105.67 191.46 1112.53 200.899C1116.6 206.485 1130.12 215.646 1127.61 223.787C1122.02 241.95 1069.55 191.729 1066.99 188.498C1066.34 187.686 1058.23 174.704 1057.57 177.016C1056.46 180.898 1054.93 184.557 1053.36 188.345C1049.28 198.218 1044.38 205.896 1036.83 213.453C1028.55 221.734 1019.18 227.399 1008.2 231.059C1000.37 233.668 1002.38 229.085 1002.38 222.409C1002.38 214.453 1030.43 156.019 1029.17 155.659C1012.04 150.763 995.716 146.081 980.334 136.292C975.463 133.192 970.392 131.245 965.331 128.714C962.797 127.447 970.582 126.42 970.995 126.341C977.027 125.192 983.129 123.891 989.214 123.891C1004.3 123.891 1019.11 125.269 1034.07 125.269C1040.3 125.269 1046.21 127.465 1047.77 120.447C1049.27 113.694 1051.08 107.318 1052.06 100.468Z" fill="#FFE9E9"/>
</g>
</svg>
